<svg width="388" height="54" viewBox="0 0 388 54" fill="none" xmlns="http://www.w3.org/2000/svg">
<path d="M-0.707101 24.1226C-1.09763 24.5131 -1.09763 25.1463 -0.707112 25.5368C-0.316591 25.9273 0.316574 25.9273 0.707101 25.5368L-0.707101 24.1226ZM194.5 2.82988L194.387 3.82344L194.5 2.82988ZM386.5 50.8297L379.587 41.5804L375.034 52.1915L386.5 50.8297ZM0.707101 25.5368C1.68327 24.5606 3.89606 23.2636 7.37803 21.7681C10.8159 20.2915 15.3696 18.671 20.9052 17.0061C31.9739 13.6769 46.9147 10.1859 64.5977 7.31666C99.9651 1.57797 146.246 -1.66444 194.387 3.82344L194.613 1.83631C146.254 -3.67652 99.7849 -0.418946 64.2773 5.34248C46.5228 8.22332 31.4949 11.7324 20.3292 15.0908C14.7476 16.7696 10.1177 18.4148 6.58876 19.9304C3.10394 21.4271 0.566729 22.8488 -0.707101 24.1226L0.707101 25.5368ZM194.387 3.82344C215.567 6.23788 252.621 13.9988 288.825 22.8361C325.031 31.6736 360.287 41.563 377.875 48.2156L378.583 46.3449C360.87 39.6453 325.51 29.7317 289.3 20.8931C253.089 12.0544 215.929 4.26621 194.613 1.83631L194.387 3.82344Z" transform="translate(1 1.67017)" fill="#007A18"/>
</svg>
