<svg width="400" height="189" viewBox="0 0 400 189" fill="none" xmlns="http://www.w3.org/2000/svg">
<path d="M313.021 -0.999774C312.469 -1.01152 312.012 -0.573432 312 -0.0212718C311.988 0.530888 312.427 0.988026 312.979 0.999774L313.021 -0.999774ZM0 181.5L9.99717 187.278L10.0028 175.731L0 181.5ZM312.979 0.999774C318.621 1.11982 326.736 3.72249 335.793 8.68181C344.824 13.6266 354.699 20.8642 363.851 30.1398C382.156 48.6936 397.5 75.3294 397.5 108H399.5C399.5 74.6706 383.844 47.5564 365.274 28.7352C355.988 19.3233 345.957 11.9672 336.754 6.92757C327.576 1.90251 319.129 -0.869823 313.021 -0.999774L312.979 0.999774ZM397.5 108C397.5 127.769 387.11 142.194 367.915 152.764C348.662 163.367 320.638 170.03 285.653 174.172C215.697 182.453 118.416 180.609 9.02306 180.504L9.02115 182.504C118.321 182.609 215.779 184.458 285.889 176.158C320.937 172.008 349.278 165.311 368.88 154.516C388.542 143.689 399.5 128.676 399.5 108H397.5Z" transform="translate(0 1)" fill="#007A18"/>
</svg>
