<svg width="119" height="95" viewBox="0 0 119 95" fill="none" xmlns="http://www.w3.org/2000/svg">
<path d="M-0.0489665 -0.930898C-0.600589 -0.903854 -1.02584 -0.434753 -0.9988 0.116869C-0.971757 0.668491 -0.502656 1.09375 0.0489665 1.0667L-0.0489665 -0.930898ZM112 93.2717L116.791 82.7655L105.297 83.8696L112 93.2717ZM0.0489665 1.0667C22.7833 -0.0478552 48.3131 12.9389 69.2446 30.2804C79.6899 38.9341 88.9436 48.635 96.0797 58.1219C103.226 67.6223 108.205 76.8502 110.17 84.5567L112.108 84.0626C110.052 75.9972 104.904 66.5259 97.678 56.9197C90.442 47.3 81.0782 37.4872 70.5206 28.7403C49.4462 11.2804 23.428 -2.08186 -0.0489665 -0.930898L0.0489665 1.0667Z" transform="translate(117.5 1.22827) scale(-1 1)" fill="#007A18"/>
</svg>
