<svg width="394" height="111" viewBox="0 0 394 111" version="1.1" xmlns="http://www.w3.org/2000/svg" xmlns:xlink="http://www.w3.org/1999/xlink">
<g id="Canvas" fill="none">
<g id="logo">
<g id="&#209;&#131;&#209;&#135;&#208;&#184;&#208;&#179;&#209;&#128;&#209;&#131;&#209;&#136;&#208;&#186;&#208;&#184;">
<path fill-rule="evenodd" clip-rule="evenodd" d="M 11.316 28.3614C 10.77 30.8146 10.2241 31.3612 8.31341 31.3612L 6.67566 31.3612C 6.49356 31.3503 6.31121 31.378 6.14064 31.4427C 5.97007 31.5073 5.81517 31.6074 5.68618 31.7363C 5.55718 31.8651 5.45703 32.0199 5.39233 32.1904C 5.32764 32.3608 5.29987 32.543 5.31087 32.7249L 5.31087 37.3609C 5.29991 37.5428 5.32771 37.725 5.39242 37.8954C 5.45714 38.0658 5.5573 38.2205 5.68629 38.3494C 5.81528 38.4782 5.97017 38.5783 6.14071 38.6429C 6.31126 38.7075 6.49359 38.7353 6.67566 38.7243L 8.31341 38.7243C 14.8647 38.7243 17.3213 36.2711 19.778 29.7251L 30.4236 1.36368C 30.7512 0.545471 30.2053 0 29.6048 0L 23.6005 0C 22.5087 0 21.9628 0.545471 21.6898 1.36368L 15.9577 18.2713L 15.4118 18.2713L 8.86077 1.36368C 8.53322 0.545471 8.0419 0 6.95006 0L 0.944394 0C 0.125518 0 -0.202032 0.545471 0.125518 1.36368L 11.316 28.3614Z" transform="translate(26 44.0024)" fill="#009500"/>
</g>
<g id="&#209;&#131;&#209;&#135;&#208;&#184;&#208;&#179;&#209;&#128;&#209;&#131;&#209;&#136;&#208;&#186;&#208;&#184;_2">
<path fill-rule="evenodd" clip-rule="evenodd" d="M 10.9207 18.5464C 9.28294 18.5464 8.1911 17.4558 8.1911 15.8193L 8.1911 1.36602C 8.2021 1.18408 8.17433 1.00187 8.10964 0.831442C 8.04494 0.661012 7.94479 0.506238 7.81579 0.377349C 7.6868 0.248459 7.5319 0.148384 7.36133 0.0837399C 7.19076 0.0190954 7.0084 -0.00864523 6.82631 0.00234369L 1.36714 0.00234369C 1.18504 -0.00864523 1.00269 0.0190954 0.832118 0.0837399C 0.66155 0.148384 0.506653 0.248459 0.377658 0.377349C 0.248663 0.506238 0.148509 0.661012 0.083812 0.831442C 0.019115 1.00187 -0.0086525 1.18408 0.00234537 1.36602L 0.00234537 17.4558C 0.00234537 23.1824 2.73222 25.9094 8.46551 25.9094L 19.3838 25.9094L 19.3838 36.8189C 19.3728 37.0008 19.4006 37.183 19.4653 37.3535C 19.53 37.5239 19.6302 37.6786 19.7592 37.8075C 19.8882 37.9364 20.0431 38.0364 20.2136 38.101C 20.3842 38.1656 20.5666 38.1933 20.7486 38.1823L 26.2078 38.1823C 26.3899 38.1933 26.5722 38.1656 26.7428 38.101C 26.9134 38.0364 27.0683 37.9364 27.1973 37.8075C 27.3263 37.6786 27.4264 37.5239 27.4911 37.3535C 27.5558 37.183 27.5836 37.0008 27.5726 36.8189L 27.5726 1.36602C 27.5836 1.18408 27.5558 1.00187 27.4911 0.831442C 27.4264 0.661012 27.3263 0.506238 27.1973 0.377349C 27.0683 0.248459 26.9134 0.148384 26.7428 0.0837399C 26.5723 0.0190954 26.3899 -0.00864523 26.2078 0.00234369L 20.7486 0.00234369C 20.5665 -0.00864523 20.3842 0.0190954 20.2136 0.0837399C 20.0431 0.148384 19.8882 0.248459 19.7592 0.377349C 19.6302 0.506238 19.53 0.661012 19.4653 0.831442C 19.4006 1.00187 19.3728 1.18408 19.3838 1.36602L 19.3838 18.5464L 10.9207 18.5464Z" transform="translate(64.4362 44.0001)" fill="#574997"/>
</g>
<g id="&#209;&#131;&#209;&#135;&#208;&#184;&#208;&#179;&#209;&#128;&#209;&#131;&#209;&#136;&#208;&#186;&#208;&#184;_3">
<path fill-rule="evenodd" clip-rule="evenodd" d="M 21.8396 14.4559L 21.8396 36.8178C 21.8287 36.9997 21.8565 37.1819 21.9212 37.3523C 21.9859 37.5227 22.0861 37.6775 22.2151 37.8063C 22.3442 37.9352 22.4991 38.0353 22.6697 38.0999C 22.8402 38.1645 23.0226 38.1922 23.2047 38.1811L 28.6639 38.1811C 28.8459 38.1922 29.0283 38.1645 29.1989 38.0999C 29.3694 38.0353 29.5243 37.9352 29.6533 37.8063C 29.7823 37.6775 29.8825 37.5227 29.9472 37.3523C 30.0119 37.1819 30.0397 36.9997 30.0287 36.8178L 30.0287 1.36602C 30.0397 1.18408 30.0119 1.00187 29.9472 0.831442C 29.8825 0.661012 29.7823 0.506238 29.6533 0.377349C 29.5244 0.248459 29.3695 0.148384 29.1989 0.0837399C 29.0283 0.0190954 28.846 -0.00864523 28.6639 0.00234369L 21.8408 0.00234369C 20.7489 0.00234369 20.3677 0.547814 19.93 1.36602L 8.73847 23.7278L 8.19255 23.7278L 8.19255 1.36602C 8.20355 1.18408 8.17578 1.00187 8.11108 0.831442C 8.04638 0.661012 7.94624 0.506238 7.81724 0.377349C 7.68825 0.248459 7.53334 0.148384 7.36277 0.0837399C 7.19221 0.0190954 7.00985 -0.00864523 6.82776 0.00234369L 1.36714 0.00234369C 1.18504 -0.00864523 1.0027 0.0190954 0.832127 0.0837399C 0.661559 0.148384 0.506662 0.248459 0.377667 0.377349C 0.248672 0.506238 0.148511 0.661012 0.0838135 0.831442C 0.0191165 1.00187 -0.00865101 1.18408 0.00234685 1.36602L 0.00234685 36.8178C -0.00865532 36.9997 0.019114 37.1819 0.0838135 37.3523C 0.148513 37.5227 0.248675 37.6775 0.377675 37.8063C 0.506675 37.9352 0.661574 38.0353 0.832143 38.0999C 1.00271 38.1645 1.18506 38.1922 1.36714 38.1811L 8.19255 38.1811C 9.28438 38.1811 9.66566 37.636 10.1033 36.8178L 21.2948 14.4559L 21.8408 14.4559L 21.8396 14.4559Z" transform="translate(104.549 44.0001)" fill="#007BDA"/>
</g>
<g id="&#209;&#131;&#209;&#135;&#208;&#184;&#208;&#179;&#209;&#128;&#209;&#131;&#209;&#136;&#208;&#186;&#208;&#184;_4">
<path fill-rule="evenodd" clip-rule="evenodd" d="M 8.19139 7.36537L 22.9314 7.36537C 23.1135 7.3764 23.2959 7.34869 23.4664 7.28408C 23.637 7.21947 23.7919 7.11943 23.9209 6.99056C 24.0499 6.86169 24.1501 6.70694 24.2148 6.53652C 24.2795 6.3661 24.3072 6.18391 24.2962 6.00197L 24.2962 1.36602C 24.3072 1.18408 24.2795 1.00187 24.2148 0.831442C 24.1501 0.661012 24.0499 0.506238 23.9209 0.377349C 23.7919 0.248459 23.637 0.148384 23.4665 0.0837399C 23.2959 0.0190954 23.1135 -0.00864523 22.9314 0.00234369L 1.36714 0.00234369C 1.18504 -0.00864523 1.0027 0.0190954 0.832127 0.0837399C 0.661559 0.148384 0.506662 0.248459 0.377667 0.377349C 0.248672 0.506238 0.148511 0.661012 0.0838135 0.831442C 0.0191165 1.00187 -0.00865101 1.18408 0.00234685 1.36602L 0.00234685 36.8178C -0.00865532 36.9997 0.019114 37.1819 0.0838135 37.3523C 0.148513 37.5227 0.248675 37.6775 0.377675 37.8063C 0.506675 37.9352 0.661574 38.0353 0.832143 38.0999C 1.00271 38.1645 1.18506 38.1922 1.36714 38.1811L 6.82632 38.1811C 7.0084 38.1922 7.19074 38.1645 7.36131 38.0999C 7.53188 38.0353 7.68679 37.9352 7.81579 37.8063C 7.94479 37.6775 8.04493 37.5227 8.10963 37.3523C 8.17433 37.1819 8.2021 36.9997 8.1911 36.8178L 8.19139 7.36537Z" transform="translate(147.121 44.0001)" fill="#F33F00"/>
</g>
<g id="&#209;&#131;&#209;&#135;&#208;&#184;&#208;&#179;&#209;&#128;&#209;&#131;&#209;&#136;&#208;&#186;&#208;&#184;_5">
<path fill-rule="evenodd" clip-rule="evenodd" d="M 19.928 27.0004C 25.6604 27.0004 28.3912 24.2733 28.3912 18.5464L 28.3912 8.45631C 28.3912 2.72942 25.6616 0.00234369 19.928 0.00234369L 1.36714 0.00234369C 1.18505 -0.00864523 1.00267 0.0190954 0.832105 0.0837399C 0.661537 0.148384 0.506648 0.248459 0.377653 0.377349C 0.248658 0.506238 0.148511 0.661012 0.0838144 0.831442C 0.0191173 1.00187 -0.00865017 1.18408 0.00234769 1.36602L 0.00234769 36.8178C -0.00865448 36.9997 0.0190996 37.1819 0.0837991 37.3523C 0.148499 37.5227 0.248668 37.6775 0.377668 37.8063C 0.506668 37.9352 0.661583 38.0353 0.832151 38.0999C 1.00272 38.1645 1.18506 38.1922 1.36714 38.1811L 6.82632 38.1811C 7.0084 38.1922 7.19074 38.1645 7.36131 38.0999C 7.53188 38.0353 7.68678 37.9352 7.81578 37.8063C 7.94478 37.6775 8.04493 37.5227 8.10963 37.3523C 8.17433 37.1819 8.2021 36.9997 8.1911 36.8178L 8.1911 27.0001L 19.928 27.0004ZM 17.4728 7.36537C 19.1106 7.36537 20.2024 8.45631 20.2024 10.0924L 20.2024 16.9103C 20.2024 18.5464 19.1106 19.6374 17.4728 19.6374L 8.19139 19.6374L 8.19139 7.36537L 17.4728 7.36537Z" transform="translate(179.866 44.0001)" fill="#FF6900"/>
</g>
<g id="&#209;&#131;&#209;&#135;&#208;&#184;&#208;&#179;&#209;&#128;&#209;&#131;&#209;&#136;&#208;&#186;&#208;&#184;_6">
<path fill-rule="evenodd" clip-rule="evenodd" d="M 11.3186 28.3614C 10.7726 30.8146 10.2267 31.3612 8.316 31.3612L 6.67826 31.3612C 6.49616 31.3503 6.3138 31.378 6.14324 31.4427C 5.97267 31.5073 5.81776 31.6074 5.68877 31.7363C 5.55977 31.8651 5.45964 32.0199 5.39495 32.1904C 5.33025 32.3608 5.30248 32.543 5.31348 32.7249L 5.31348 37.3609C 5.30252 37.5428 5.33031 37.725 5.39502 37.8954C 5.45974 38.0658 5.5599 38.2205 5.68889 38.3494C 5.81788 38.4782 5.97277 38.5783 6.14331 38.6429C 6.31386 38.7075 6.49619 38.7353 6.67826 38.7243L 8.316 38.7243C 14.8673 38.7243 17.3239 36.2711 19.7806 29.7251L 30.4262 1.36368C 30.7538 0.545471 30.2079 0 29.6074 0L 23.6023 0C 22.5104 0 21.9645 0.545471 21.6913 1.36368L 15.9591 18.2713L 15.4132 18.2713L 8.86048 1.36368C 8.53293 0.545471 8.0416 0 6.94977 0L 0.944383 0C 0.125508 0 -0.20203 0.545471 0.12552 1.36368L 11.3186 28.3614Z" transform="translate(215.653 44.0024)" fill="#009500"/>
</g>
<g id="&#209;&#131;&#209;&#135;&#208;&#184;&#208;&#179;&#209;&#128;&#209;&#131;&#209;&#136;&#208;&#186;&#208;&#184;_7">
<path fill-rule="evenodd" clip-rule="evenodd" d="M 39.5828 38.1812C 39.765 38.1924 39.9474 38.1648 40.1181 38.1002C 40.2888 38.0357 40.4439 37.9356 40.573 37.8068C 40.7022 37.6779 40.8025 37.5231 40.8673 37.3526C 40.9321 37.1821 40.96 36.9999 40.949 36.8178L 40.949 1.36609C 40.96 1.18403 40.9322 1.00171 40.8674 0.831198C 40.8026 0.660683 40.7023 0.505854 40.5731 0.376951C 40.444 0.248047 40.2889 0.148005 40.1182 0.0834389C 39.9475 0.0188729 39.765 -0.00874234 39.5828 0.00241254L 34.1236 0.00241254C 33.9415 -0.00857638 33.7592 0.0191643 33.5886 0.0838088C 33.418 0.148453 33.2631 0.248527 33.1342 0.377417C 33.0052 0.506307 32.905 0.661081 32.8403 0.831511C 32.7756 1.00194 32.7478 1.18415 32.7588 1.36609L 32.7588 30.8182L 24.5692 30.8182L 24.5692 1.36609C 24.5802 1.18415 24.5524 1.00194 24.4877 0.831511C 24.423 0.661081 24.3229 0.506307 24.1939 0.377417C 24.0649 0.248527 23.91 0.148453 23.7394 0.0838088C 23.5689 0.0191643 23.3865 -0.00857638 23.2044 0.00241254L 17.7452 0.00241254C 17.5631 -0.00857638 17.3808 0.0191643 17.2102 0.0838088C 17.0396 0.148453 16.8848 0.248527 16.7558 0.377417C 16.6268 0.506307 16.5266 0.661081 16.4619 0.831511C 16.3972 1.00194 16.3694 1.18415 16.3804 1.36609L 16.3804 30.8182L 8.19111 30.8182L 8.19111 1.36609C 8.20211 1.18415 8.17434 1.00194 8.10965 0.831511C 8.04495 0.661081 7.94479 0.506307 7.81579 0.377417C 7.6868 0.248527 7.53191 0.148453 7.36134 0.0838088C 7.19077 0.0191643 7.0084 -0.00857638 6.82631 0.00241254L 1.36715 0.00241254C 1.18506 -0.00857638 1.00269 0.0191643 0.83212 0.0838088C 0.661551 0.148453 0.506662 0.248527 0.377667 0.377417C 0.248672 0.506307 0.148511 0.661081 0.0838135 0.831511C 0.0191165 1.00194 -0.00865101 1.18415 0.00234685 1.36609L 0.00234685 36.8178C -0.00865532 36.9998 0.019114 37.182 0.0838135 37.3524C 0.148513 37.5228 0.248682 37.6775 0.377683 37.8064C 0.506683 37.9353 0.661567 38.0353 0.832135 38.0999C 1.0027 38.1645 1.18507 38.1922 1.36715 38.1812L 39.5814 38.1812L 39.5828 38.1812Z" transform="translate(254.636 44)" fill="#574997"/>
</g>
<g id="&#209;&#131;&#209;&#135;&#208;&#184;&#208;&#179;&#209;&#128;&#209;&#131;&#209;&#136;&#208;&#186;&#208;&#184;_8">
<path fill-rule="evenodd" clip-rule="evenodd" d="M 8.19114 1.36609C 8.20217 1.18426 8.17444 1.00217 8.10985 0.831823C 8.04525 0.661479 7.94523 0.506761 7.81639 0.377884C 7.68754 0.249008 7.53282 0.148902 7.36241 0.0841787C 7.19199 0.0194557 7.00976 -0.00841057 6.82777 0.00241254L 1.3686 0.00241254C 1.1864 -0.00874234 1.00389 0.0188729 0.833173 0.0834389C 0.66245 0.148005 0.507392 0.248047 0.378247 0.376951C 0.249102 0.505854 0.148795 0.660683 0.0839965 0.831198C 0.0191975 1.00171 -0.00863981 1.18403 0.00233144 1.36609L 0.00233144 36.8178C -0.00859722 36.9999 0.0193005 37.1821 0.0841185 37.3526C 0.148937 37.5231 0.249198 37.6779 0.378339 37.8068C 0.507479 37.9356 0.662563 38.0357 0.833264 38.1002C 1.00396 38.1648 1.18643 38.1924 1.3686 38.1812L 6.82777 38.1812C 7.00974 38.1921 7.19193 38.1643 7.36235 38.0996C 7.53276 38.0349 7.68751 37.9348 7.81636 37.8059C 7.94521 37.6771 8.04525 37.5224 8.10985 37.3521C 8.17444 37.1817 8.20217 36.9996 8.19114 36.8178L 8.19114 21.819L 13.6503 21.819L 20.4757 36.8178C 20.6575 37.2402 20.964 37.597 21.3542 37.8406C 21.7444 38.0842 22.1998 38.2031 22.6594 38.1812L 28.1186 38.1812C 28.9389 38.1812 29.5916 37.636 29.2104 36.8178L 20.4757 18.0004L 28.1186 1.36552C 28.4998 0.547306 28.0088 0.00183564 27.3011 0.00183564L 21.296 0.00183564C 20.2042 0.00183564 19.7652 0.547306 19.3839 1.36552L 13.3788 14.4554L 8.18968 14.4554L 8.18968 1.36609L 8.19114 1.36609Z" transform="translate(308.122 44)" fill="#F33F00"/>
</g>
<g id="&#209;&#131;&#209;&#135;&#208;&#184;&#208;&#179;&#209;&#128;&#209;&#131;&#209;&#136;&#208;&#186;&#208;&#184;_9">
<path fill-rule="evenodd" clip-rule="evenodd" d="M 21.8391 14.456L 21.8391 36.8178C 21.8281 36.9999 21.856 37.1821 21.9208 37.3526C 21.9856 37.5231 22.0859 37.6779 22.2151 37.8068C 22.3442 37.9356 22.4993 38.0357 22.67 38.1002C 22.8407 38.1648 23.0231 38.1924 23.2053 38.1812L 28.6645 38.1812C 28.8464 38.1921 29.0287 38.1643 29.1991 38.0996C 29.3695 38.0349 29.5242 37.9348 29.6531 37.8059C 29.7819 37.6771 29.882 37.5224 29.9466 37.3521C 30.0112 37.1817 30.0389 36.9996 30.0278 36.8178L 30.0278 1.36609C 30.0389 1.18426 30.0112 1.00217 29.9466 0.831823C 29.882 0.661479 29.7819 0.506761 29.6531 0.377884C 29.5242 0.249008 29.3695 0.148902 29.1991 0.0841787C 29.0287 0.0194557 28.8465 -0.00841057 28.6645 0.00241254L 21.8391 0.00241254C 20.7472 0.00241254 20.3659 0.547883 19.9298 1.36609L 8.73704 23.7279L 8.19111 23.7279L 8.19111 1.36609C 8.20208 1.18403 8.17424 1.00171 8.10945 0.831198C 8.04465 0.660683 7.9444 0.505854 7.81526 0.376951C 7.68611 0.248047 7.53102 0.148005 7.3603 0.0834389C 7.18958 0.0188729 7.0071 -0.00874234 6.8249 0.00241254L 1.3657 0.00241254C 1.18371 -0.00841057 1.00151 0.0194557 0.831095 0.0841787C 0.66068 0.148902 0.50596 0.249008 0.377115 0.377884C 0.24827 0.506761 0.148253 0.661479 0.083658 0.831823C 0.0190629 1.00217 -0.00866542 1.18426 0.00235918 1.36609L 0.00235918 36.8178C -0.00866969 36.9996 0.0190604 37.1817 0.083658 37.3521C 0.148256 37.5224 0.248265 37.6771 0.377115 37.8059C 0.505965 37.9348 0.660741 38.0349 0.831156 38.0996C 1.00157 38.1643 1.18373 38.1921 1.3657 38.1812L 8.19111 38.1812C 9.28294 38.1812 9.66424 37.636 10.1033 36.8178L 21.2932 14.456L 21.8391 14.456Z" transform="translate(346.217 44)" fill="#007BDA"/>
</g>
<g id="&#208;&#186;&#208;&#187;&#209;&#131;&#208;&#177; &#208;&#188;&#208;&#176;&#208;&#179;&#208;&#176;&#208;&#183;&#208;&#184;&#208;&#189;">
<path fill-rule="evenodd" clip-rule="evenodd" d="M 8.79649 22.5863L 9.18469 22.5863L 9.60497 22.554L 10.0902 22.554L 10.9311 22.4894L 11.2228 22.3592L 11.2551 22.0036L 11.029 21.5511L 9.89699 19.6122L 9.37938 18.5784L 9.02381 17.9645L 8.76385 17.6413L 8.47269 16.9628L 8.08448 16.3812L 7.24366 14.8949L 7.0172 14.4426L 6.9525 13.9257L 7.1466 13.3774L 7.76127 12.7312L 8.01978 12.311L 8.31094 12.02L 8.85974 11.2445L 9.50647 9.95215L 9.73292 9.6289L 9.86233 9.14433L 10.0241 8.69207L 10.2505 8.30447L 10.4123 7.91658L 10.3152 7.46433L 9.92703 7.17341L 9.40942 7.20573L 8.92445 7.27038L 8.47154 7.27038L 7.98628 7.20573L 7.46895 7.432L 7.08075 7.81961L 6.9837 8.27186L 6.82194 8.65975L 6.66048 9.14433L 6.23992 9.98447L 5.97996 10.4047L 5.72 10.6956L 5.46004 11.0832L 4.78674 11.8249L 4.46323 12.1482L 3.71946 12.6004L 3.33125 12.6328L 3.13715 12.0512L 3.13715 10.9216L 3.10624 10.4047L 3.10624 8.5951L 2.97684 7.78699L 2.75067 7.33474L 2.26541 7.20544L 1.8125 7.17312L 1.39195 7.20544L 0.745219 7.17312L 0.129403 7.46404L 6.34669e-07 7.91629L 0.0323511 8.36883L 0.0647016 8.72411L 0.0647016 9.17636L 0.0970521 9.62861L 0.0647016 10.0814L 0.0647016 10.4685L 0.129403 10.953L 0.129403 13.2149L 0.0647016 13.7327L 0.129403 14.1529L 0.0970521 15.2516L 0.129403 15.7685L 0.0647016 17.0609L 0.129403 17.8364L 0.0970521 18.2563L 0.0647016 19.3865L 0.129403 20.4853L 0.0970521 20.9375L 0.0970521 21.8746L 0.291155 22.2625L 0.711714 22.5223L 1.16462 22.5546L 1.61753 22.5223L 2.49071 22.5546L 2.94333 22.3283L 3.16979 21.8761L 3.10624 21.3909L 3.17094 20.971L 3.13859 19.5816L 3.17094 19.2263L 3.17094 16.9316L 3.13859 16.4794L 3.36505 16.0271L 3.97971 15.7362L 4.43233 16.0918L 5.30579 17.708L 5.56431 17.9989L 5.79077 18.4511L 6.01722 18.839L 6.21132 19.2913L 6.40543 19.6792L 6.66539 19.9701L 6.92391 20.358L 7.79737 21.9742L 8.21764 22.3618L 8.79649 22.5863ZM 15.0355 22.651L 15.8443 22.2631L 16.2325 22.0034L 16.6207 21.7771L 17.5263 20.6783L 17.7862 20.2584L 17.9803 19.9028L 18.1421 19.4506L 18.3035 19.0627L 18.5947 18.1579L 18.6917 17.6733L 18.8211 17.2857L 18.9182 16.7374L 18.9505 16.3818L 19.0152 15.8972L 19.0799 14.9278L 19.177 14.5076L 19.177 14.0559L 19.2417 13.539L 19.2741 12.8928L 19.3388 12.1496L 19.3682 11.2448L 19.4326 10.4693L 19.6926 9.75849L 20.1131 9.56454L 20.9857 9.59687L 21.4063 9.53222L 21.8269 9.56454L 22.2471 9.72616L 22.5383 10.2107L 22.5383 11.2125L 22.5059 11.5681L 22.5059 12.5052L 22.5383 12.8608L 22.4736 15.1226L 22.5383 15.6072L 22.5383 16.512L 22.4736 16.8996L 22.5383 17.3841L 22.5383 18.1273L 22.5059 18.5472L 22.5383 19.1934L 22.5059 19.6137L 22.5059 20.7771L 22.4736 21.2293L 22.5059 21.6172L 22.7 22.3604L 23.1853 22.5866L 24.4467 22.522L 24.8993 22.5543L 25.3199 22.3604L 25.5463 21.9081L 25.5787 21.3912L 25.5466 21.0027L 25.579 20.0979L 25.5466 19.6134L 25.5466 18.7735L 25.579 17.7718L 25.5143 17.4165L 25.579 16.8996L 25.5466 12.1493L 25.5143 11.7294L 25.579 10.3729L 25.5466 9.17752L 25.579 8.78962L 25.5143 7.82018L 25.3202 7.46461L 24.6408 7.20487L 23.5412 7.17254L 23.0885 7.23719L 22.668 7.20487L 21.9886 7.23719L 21.1154 7.20487L 20.404 7.23719L 20.0158 7.14022L 19.5305 7.14022L 19.1103 7.23719L 17.7842 7.20487L 17.3313 7.23719L 16.8463 7.49694L 16.6199 7.94919L 16.5875 8.36941L 16.6199 8.82166L 16.3931 11.891L 16.3931 12.633L 16.3608 13.0207L 16.199 15.3148L 16.0049 16.7365L 15.8443 17.1902L 15.7473 17.6425L 15.424 18.4826L 14.9711 19.1611L 14.3244 19.872L 13.9685 20.1317L 13.645 20.455L 13.6127 21.0688L 13.9685 21.7797L 14.1303 22.2319L 14.5182 22.6198L 15.0355 22.651ZM 31.2345 30.6969L 32.0433 30.2443L 32.5606 29.7921L 33.0459 29.4042L 33.5947 28.6933L 34.0797 27.9502L 34.5649 27.1421L 34.9531 26.3666L 35.244 25.4618L 35.4705 25.0739L 36.6989 20.6798L 36.796 20.2275L 36.9254 19.8073L 37.0548 19.3227L 37.1842 18.8702L 37.2489 18.4503L 37.4106 18.0301L 37.8309 16.3174L 37.9927 15.8005L 39.1893 11.4062L 39.3187 10.7276L 39.5452 10.0814L 39.6099 9.66123L 39.7717 9.17665L 39.9011 8.75672L 39.9981 8.30447L 40.1272 7.88454L 39.9981 7.39997L 39.3834 7.20602L 38.1868 7.20602L 37.7676 7.17341L 37.2503 7.46433L 36.8945 7.91658L 36.668 8.75672L 36.6033 9.20898L 36.5063 9.59687L 36.3769 10.3077L 36.1169 11.3095L 35.9875 11.8578L 35.6316 13.1826L 35.6013 13.539L 35.4719 14.0236L 35.3749 14.4112L 35.2455 14.8958L 35.0837 15.542L 34.9222 16.7697L 34.7925 17.222L 34.7278 17.6745L 34.5984 18.2228L 34.5326 18.2228L 34.4032 17.7703L 34.3385 17.4471L 33.9179 15.5728L 33.4653 14.0542L 33.3682 13.5058L 33.1418 12.6657L 32.8189 11.8249L 32.7542 11.3727L 32.6571 10.9528L 32.463 10.5325L 31.7516 7.85049L 31.3957 7.43056L 30.8784 7.20429L 29.4553 7.23661L 29.0024 7.20429L 28.6144 7.39823L 28.485 7.81845L 28.8082 8.75557L 28.8729 9.11114L 29.1641 9.95128L 29.2612 10.4359L 29.3911 10.9216L 29.5529 11.3418L 29.8129 12.1173L 29.9099 12.5696L 30.0714 13.0541L 30.1684 13.4094L 30.589 14.7018L 30.686 15.2187L 30.8478 15.6389L 31.0419 16.5114L 31.2034 16.9313L 31.3328 17.3189L 31.4622 17.6745L 31.5592 18.1914L 31.8504 18.9995L 31.9474 19.5164L 32.0768 19.9043L 32.2386 20.2922L 32.3356 20.7444L 32.4971 21.1323L 32.5941 21.6492L 32.7235 22.0694L 32.7559 22.7156L 32.7559 23.3618L 32.4959 24.202L 32.3992 24.6222L 32.2374 25.0424L 32.011 25.3977L 31.8816 25.85L 31.461 26.6901L 30.9122 27.3686L 30.2961 28.016L 29.9402 28.2099L 29.6494 28.5978L 29.7788 29.341L 30.2961 30.3104L 30.749 30.6337L 31.2345 30.6969ZM 49.1164 22.9096L 50.863 22.328L 51.2189 22.1664L 51.9303 21.5849L 52.5126 20.9063L 52.8038 20.4864L 53.3858 19.194L 53.5152 18.7741L 53.5799 18.2895L 53.7416 17.8373L 53.871 16.9325L 53.871 16.4794L 53.9681 15.5422L 53.9357 14.8637L 53.9681 14.0882L 53.9028 13.7009L 53.8705 12.7315L 53.7734 12.3444L 53.6764 11.8599L 53.3205 10.5034L 53.1264 10.0835L 52.9002 9.7279L 52.6091 9.34L 52.3179 9.01676L 51.7033 8.43521L 51.0565 8.20894L 50.4419 7.94919L 49.9893 7.88454L 49.3422 7.88454L 48.6632 7.94919L 47.7576 8.14314L 46.561 8.78934L 46.2374 9.08025L 45.9463 9.24188L 45.7845 8.91863L 45.8492 8.40173L 45.9463 7.94948L 46.0433 7.4649L 46.1727 7.10934L 46.3668 6.68912L 46.561 6.30152L 47.0459 5.71997L 47.8867 5.00912L 48.3073 4.8475L 48.6955 4.58775L 49.1158 4.42613L 49.5687 4.23218L 50.2157 4.03823L 50.8301 3.68267L 51.2506 3.52104L 51.6709 3.19809L 52.0591 3.00414L 52.415 2.6809L 52.8032 2.35766L 53.0631 1.84076L 53.0308 1.32386L 52.8355 1.00205L 52.415 0.193946L 52.0268 2.49436e-10L 51.6065 0.096973L 50.5066 0.905082L 50.1187 1.16483L 48.8896 1.68029L 48.4691 1.87423L 48.0485 2.00353L 47.6282 2.2298L 46.7548 2.58537L 46.3668 2.84512L 45.9786 3.03907L 45.2349 3.62062L 44.2955 4.556L 43.9076 5.39615L 43.6477 5.75142L 43.4859 6.17164L 43.4212 6.62389L 43.2918 6.97946L 43.1647 7.49578L 43.1 7.98036L 43.003 8.30361L 42.8412 9.66007L 42.8089 10.5972L 42.7765 11.0494L 42.7765 11.405L 42.7121 11.9219L 42.7444 12.3742L 42.7121 12.7944L 42.7444 13.2466L 42.6797 13.7009L 42.7121 15.5105L 42.9059 17.3847L 43.003 17.7723L 43.0353 18.1925L 43.65 19.9375L 44.0379 20.7456L 44.5867 21.3918L 45.2337 21.9733L 45.5893 22.1996L 46.0422 22.4594L 46.433 22.619L 46.8533 22.6836L 47.2738 22.8129L 47.7591 22.8776L 48.4058 22.8776L 49.1164 22.9096ZM 48.3394 20.2275L 47.725 20.1306L 47.3368 19.9689L 46.5927 19.452L 46.173 18.6765L 46.076 18.192L 45.9789 17.7718L 45.8819 17.2549L 45.8495 16.8672L 45.7848 16.3827L 45.8172 12.8616L 46.0113 12.2801L 46.3024 11.6662L 46.658 11.4065L 47.0139 11.0509L 47.3697 10.8569L 47.8547 10.7276L 48.2752 10.566L 48.9223 10.566L 49.666 10.5983L 50.0542 10.8246L 50.3454 11.1802L 50.5716 11.6001L 50.8315 12.5049L 50.9609 13.442L 50.9933 15.1223L 50.9286 15.8008L 50.9609 16.2854L 50.6698 18.2243L 50.3789 19.0324L 50.1189 19.388L 49.7631 19.7432L 49.4396 19.9695L 49.0193 20.1635L 48.3394 20.2275ZM 60.7222 14.3465L 61.2395 14.2819L 61.7571 14.3142L 62.2744 14.2819L 62.8232 14.3465L 63.567 14.3465L 64.3111 14.2819L 64.796 13.991L 65.0225 13.5064L 65.0548 12.9248L 64.7949 12.311L 64.3099 12.0512L 63.5982 12.1482L 62.0162 12.0847L 61.3045 12.0847L 60.7225 11.9877L 60.2048 12.0524L 59.7519 12.0524L 59.2031 12.02L 58.6855 12.02L 58.2005 12.3433L 58.0064 12.8916L 57.9417 13.4732L 58.2017 14.0871L 58.7505 14.281L 59.2034 14.3133L 59.7854 14.281L 60.7222 14.3465ZM 71.2624 22.619L 71.683 22.5866L 72.0712 22.2634L 72.2976 21.6495L 72.2976 19.1288L 72.33 18.4826L 72.2976 17.3192L 72.33 16.8346L 72.2329 15.7036L 72.2329 15.1223L 72.1691 14.7344L 72.1691 14.2822L 72.1044 13.8299L 72.072 12.9251L 71.9741 12.0847L 72.0065 11.6324L 71.9418 11.1802L 72.0388 11.1802L 72.2006 11.6324L 72.2653 12.0527L 72.5238 12.8928L 72.6208 13.345L 73.1385 15.0577L 73.2679 15.5746L 73.4296 15.9625L 73.5267 16.4138L 73.8175 17.254L 74.044 18.1588L 74.1734 18.5143L 74.3351 19.0312L 74.4322 19.5158L 74.5939 19.936L 74.691 20.3883L 75.0142 20.8085L 75.5965 21.0348L 76.8903 21.0348L 77.4391 20.7439L 77.7623 20.3563L 77.924 19.8717L 78.0211 19.4518L 78.3122 18.6116L 78.6358 17.2551L 78.7972 16.8349L 79.0884 15.9625L 79.1854 15.4779L 80.4468 11.2125L 80.5115 11.1802L 80.5115 11.6648L 80.188 14.7991L 80.1557 16.77L 80.1245 17.222L 80.1892 18.5467L 80.1245 19.6777L 80.1892 21.0671L 80.2856 21.9725L 80.5768 22.3924L 80.9974 22.5863L 81.4823 22.5217L 81.8705 22.6187L 82.3234 22.6187L 82.7761 22.554L 83.1319 22.3924L 83.2937 21.9725L 83.1648 20.1946L 83.1972 19.7747L 83.1648 19.3225L 83.1648 18.1596L 83.1972 17.4488L 83.1325 17.0286L 83.1648 16.544L 83.1972 16.1252L 83.1648 15.7053L 83.1648 13.345L 83.1972 12.9895L 83.1325 10.9216L 83.1972 10.2107L 83.1648 9.69384L 83.1972 9.30624L 83.1648 8.82166L 83.1972 8.33708L 83.1972 7.9489L 82.9719 7.43171L 82.5516 7.17196L 81.6135 7.23661L 80.5462 7.20429L 79.8995 7.23661L 79.4142 7.39823L 79.0907 7.85049L 78.8966 8.23838L 78.541 9.6924L 78.3146 10.2739L 78.1193 10.9539L 77.9576 11.3738L 77.8593 11.8587L 77.6976 12.214L 77.4714 12.9572L 77.3097 13.6034L 77.1479 13.991L 76.9862 14.7341L 76.5333 16.3174L 76.4362 16.8343L 76.3068 17.3189L 76.1777 17.3189L 76.0806 16.8343L 75.9189 16.3174L 75.7895 15.8329L 75.7259 15.3171L 75.3054 14.0247L 75.2083 13.5725L 74.8842 12.6665L 74.8195 12.311L 74.3666 10.9545L 74.2704 10.4685L 73.9793 9.66036L 73.8175 9.24014L 73.3649 7.88368L 73.009 7.3991L 72.5238 7.20515L 72.1359 7.20515L 71.7153 7.23748L 71.2624 7.17283L 69.9687 7.20515L 69.5161 7.36678L 69.2896 7.88368L 69.3219 8.27128L 69.3219 8.72353L 69.2572 9.27189L 69.2896 9.65978L 69.3219 10.1444L 69.2572 11.0492L 69.3219 11.5014L 69.2896 11.9537L 69.3219 16.6736L 69.2896 17.3521L 69.3219 17.8367L 69.3219 21.3909L 69.2896 21.9078L 69.4837 22.2954L 69.9687 22.5863L 70.3892 22.5217L 70.8421 22.554L 71.2624 22.619ZM 90.3071 22.8787L 91.6979 22.8141L 92.1182 22.7817L 92.6358 22.5555L 93.024 22.4262L 93.4443 22.1353L 93.8001 21.812L 94.0924 21.5199L 94.4159 21.3583L 94.6097 21.5199L 94.7068 21.9399L 95.0303 22.3278L 95.6126 22.5217L 96.874 22.5863L 97.2619 22.2954L 97.456 21.8432L 97.359 20.9707L 97.359 20.4861L 97.2943 20.0985L 97.3266 14.6377L 97.2943 13.7329L 97.3266 13.2807L 97.2931 12.0847L 97.2931 11.4062L 97.2608 10.8893L 97.099 10.0491L 96.8076 9.20898L 96.5476 8.78876L 96.3212 8.46552L 96.03 8.10995L 95.6744 7.7867L 95.3186 7.59276L 94.9951 7.33301L 94.5422 7.13906L 94.1219 7.07441L 93.6707 6.94743L 92.5387 6.85045L 91.892 6.94743L 91.4391 6.94743L 91.0185 6.97975L 90.1454 7.27067L 88.9487 7.81903L 88.5928 8.01297L 88.2046 8.30389L 88.0108 8.72382L 88.1402 9.3377L 88.4002 9.69326L 88.6601 10.1132L 89.0781 10.4685L 89.563 10.4038L 89.9513 10.0806L 90.7274 9.72501L 91.1479 9.62804L 91.6332 9.49874L 92.3123 9.49874L 92.9269 9.56339L 93.3472 9.66036L 93.6707 9.88663L 93.9619 10.2422L 94.253 11.0823L 94.3177 11.5363L 94.2854 12.1502L 94.0924 12.6019L 93.5748 12.7312L 92.831 12.7312L 91.9255 12.7635L 90.7609 12.9574L 90.3406 13.1837L 89.9201 13.3453L 89.4995 13.5716L 89.1439 13.8314L 88.4311 14.4112L 88.1078 14.7344L 87.6226 15.5099L 87.2667 16.3824L 87.0735 17.2549L 87.0088 17.7394L 87.0088 19.1288L 87.1059 19.775L 87.2999 20.5182L 87.947 21.6492L 88.2702 21.9401L 89.4348 22.651L 89.8551 22.7156L 90.3071 22.8787ZM 91.795 20.2936L 91.1156 20.1643L 90.7274 19.9381L 90.3718 19.6783L 90.2101 19.2261L 90.0807 18.8058L 90.016 18.1596L 90.0486 17.4488L 90.1457 17.0286L 90.2751 16.6084L 90.5015 16.2208L 91.1159 15.6069L 91.4394 15.3471L 91.8599 15.1532L 92.539 15.0562L 92.9596 15.0239L 93.6386 14.9592L 94.0924 15.2513L 94.2865 15.7359L 94.3512 16.3821L 94.2865 17.9654L 94.1571 18.6116L 93.8972 19.1932L 93.606 19.4529L 93.2504 19.8082L 92.8946 20.0679L 92.4417 20.2296L 91.795 20.2936ZM 102.884 22.5878L 103.951 22.5555L 104.372 22.5878L 104.76 22.328L 104.889 21.9728L 104.792 21.0356L 104.824 20.5834L 104.824 20.1306L 104.792 19.6463L 104.824 18.3862L 104.76 17.8378L 104.76 17.1902L 104.792 16.8346L 104.792 16.0591L 104.824 15.3806L 104.824 14.993L 104.792 14.3145L 104.824 11.6648L 104.792 11.2448L 104.824 10.7279L 104.76 10.3727L 105.02 9.82429L 105.473 9.66267L 107.413 9.66267L 107.801 9.59802L 108.287 9.66267L 108.804 9.66267L 109.257 9.63035L 109.677 9.3706L 109.937 8.88602L 109.937 7.91658L 109.711 7.432L 108.997 7.14108L 108.317 7.23806L 106.96 7.27038L 106.539 7.20573L 106.086 7.23806L 105.149 7.17341L 104.696 7.20573L 103.822 7.14108L 103.337 7.17341L 102.852 7.23806L 102.432 7.17341L 101.979 7.43316L 101.72 7.85308L 101.72 8.36999L 101.785 8.98386L 101.785 9.88865L 101.753 10.3732L 101.785 10.8901L 101.753 11.3103L 101.785 11.7306L 101.753 12.4737L 101.72 12.8928L 101.752 13.7976L 101.72 15.6395L 101.72 16.0918L 101.784 16.4473L 101.72 18.7415L 101.817 20.648L 101.784 21.1326L 101.881 21.9081L 102.14 22.3604L 102.884 22.5878ZM 115.171 22.8787L 116.562 22.8141L 116.983 22.7817L 117.5 22.5555L 117.888 22.4262L 118.309 22.1353L 118.664 21.812L 118.956 21.5211L 119.279 21.3595L 119.473 21.5211L 119.57 21.941L 119.894 22.3289L 120.476 22.5229L 121.737 22.5875L 122.125 22.2966L 122.319 21.8443L 122.222 20.9719L 122.222 20.4861L 122.158 20.0985L 122.19 14.6377L 122.158 13.7329L 122.19 13.2807L 122.158 12.0847L 122.158 11.4062L 122.125 10.8893L 121.964 10.0491L 121.673 9.20898L 121.413 8.78876L 121.186 8.46552L 120.897 8.11052L 120.541 7.78728L 120.186 7.59334L 119.862 7.33359L 119.409 7.13964L 118.989 7.07499L 118.536 6.94569L 117.404 6.84872L 116.757 6.94569L 116.305 6.94569L 115.884 6.97802L 115.011 7.26894L 113.814 7.8173L 113.458 8.01124L 113.07 8.30389L 112.875 8.72382L 113.005 9.3377L 113.265 9.69326L 113.525 10.1132L 113.945 10.4688L 114.431 10.4041L 114.819 10.0809L 115.595 9.7253L 116.015 9.62833L 116.5 9.49903L 117.18 9.49903L 117.794 9.56368L 118.211 9.66036L 118.534 9.88663L 118.825 10.2422L 119.117 11.0823L 119.182 11.5363L 119.15 12.1502L 118.956 12.6025L 118.438 12.7318L 117.694 12.7318L 116.789 12.7641L 115.624 12.958L 115.204 13.1843L 114.783 13.3459L 114.363 13.5722L 114.007 13.8319L 113.296 14.4135L 112.972 14.7367L 112.487 15.5122L 112.131 16.3847L 111.937 17.2572L 111.873 17.7417L 111.873 19.1311L 111.97 19.7773L 112.163 20.5205L 112.81 21.6515L 113.134 21.9425L 114.298 22.6533L 114.719 22.718L 115.171 22.8787ZM 116.659 20.2936L 115.98 20.1643L 115.592 19.9381L 115.236 19.6783L 115.074 19.2261L 114.945 18.8058L 114.88 18.1596L 114.913 17.4488L 115.01 17.0286L 115.139 16.6084L 115.366 16.2208L 115.98 15.6069L 116.303 15.3471L 116.724 15.1532L 117.402 15.0574L 117.823 15.025L 118.502 14.9604L 118.955 15.2513L 119.149 15.7359L 119.214 16.3821L 119.149 17.9654L 119.02 18.6119L 118.76 19.1934L 118.469 19.4532L 118.113 19.8085L 117.757 20.0682L 117.304 20.2298L 116.659 20.2936ZM 129.915 22.8787L 130.627 22.8787L 131.533 22.7494L 132.341 22.4585L 133.15 22.006L 133.538 21.7797L 133.894 21.4888L 134.185 21.1335L 134.476 20.8737L 134.702 20.4858L 134.896 20.0656L 135.058 19.7103L 135.188 19.2901L 135.252 18.8056L 135.285 17.4491L 135.188 17.0289L 134.961 16.1564L 134.702 15.8655L 134.476 15.5099L 134.184 15.1546L 133.828 14.9284L 133.472 14.5728L 133.311 14.2819L 133.44 13.8619L 133.764 13.5387L 134.024 13.1831L 134.444 12.2783L 134.605 11.8249L 134.702 10.6618L 134.67 9.98332L 134.573 9.53106L 134.411 9.07852L 134.217 8.75557L 133.926 8.33535L 132.859 7.39823L 132.018 7.10876L 131.565 7.01179L 130.401 6.91481L 129.269 6.97946L 128.395 7.17341L 127.942 7.23806L 127.587 7.46433L 127.134 7.62595L 126.778 7.8857L 126.39 8.11197L 126.13 8.5319L 126.227 9.08025L 126.453 9.59716L 126.648 9.98476L 127.1 10.308L 127.585 10.2757L 127.909 10.0159L 128.718 9.66036L 129.171 9.49874L 130.594 9.56339L 130.982 9.75733L 131.338 10.0483L 131.564 10.4685L 131.693 11.1793L 131.596 11.8902L 131.469 12.3444L 131.178 12.732L 130.337 13.1843L 129.69 13.3459L 129.236 13.3459L 128.589 13.4106L 128.201 13.3782L 127.748 13.638L 127.554 14.1226L 127.587 14.8334L 127.781 15.5443L 128.201 15.7059L 128.654 15.7382L 129.366 15.7382L 130.077 15.8029L 130.595 15.8655L 131.047 16.0271L 131.468 16.221L 131.791 16.5443L 132.051 16.8352L 132.18 17.3198L 132.277 18.063L 132.18 18.6768L 131.857 19.3554L 131.437 19.8076L 130.595 20.1946L 129.915 20.2593L 128.816 20.1623L 128.395 20.033L 127.975 19.936L 127.619 19.6463L 127.231 19.3865L 126.778 19.2896L 126.39 19.5805L 126.13 19.9684L 125.968 20.2916L 125.742 20.6472L 125.677 21.0994L 125.904 21.5517L 126.292 21.8749L 126.712 22.0689L 127.068 22.3286L 127.521 22.5226L 127.941 22.6195L 128.394 22.7488L 128.847 22.8458L 129.3 22.8135L 129.915 22.8787ZM 140.617 22.5878L 141.588 22.5231L 142.136 22.2969L 142.589 21.9093L 142.783 21.4567L 143.139 20.6812L 143.302 20.1946L 143.496 19.8394L 144.207 18.1591L 144.434 17.7391L 144.628 17.2869L 144.984 16.4788L 145.146 16.0265L 145.339 15.6057L 146.373 13.0865L 146.535 12.5696L 146.697 12.1173L 146.858 11.6327L 146.955 11.6974L 146.729 13.8619L 146.729 14.3791L 146.633 15.6715L 146.633 16.9963L 146.666 17.4485L 146.633 19.2904L 146.698 20.2599L 146.666 20.6798L 146.73 21.5523L 146.795 22.0045L 147.022 22.3924L 147.474 22.554L 147.927 22.5217L 149.221 22.5217L 149.609 22.3601L 149.738 21.9725L 149.706 21.4241L 149.641 21.0027L 149.641 20.5831L 149.608 20.1946L 149.608 14.509L 149.576 14.0568L 149.641 12.8934L 149.608 12.4726L 149.608 10.4047L 149.641 9.98447L 149.576 8.85225L 149.641 8.36768L 149.641 7.85193L 149.381 7.39968L 148.929 7.17341L 148.508 7.20573L 147.797 7.20573L 147.086 7.23806L 146.537 7.432L 146.182 7.91658L 145.955 8.27215L 145.793 8.62771L 144.758 11.2128L 144.532 11.633L 144.37 12.0532L 143.982 12.8613L 141.816 18.3868L 141.751 18.1928L 141.848 17.0294L 141.913 16.6092L 141.945 15.6075L 142.01 14.9613L 141.977 14.0241L 142.01 12.8931L 141.945 12.1176L 141.945 10.0168L 141.977 9.56425L 141.943 9.112L 141.879 8.69179L 141.879 8.23953L 141.814 7.81961L 141.554 7.432L 140.907 7.23806L 140.293 7.20573L 139.387 7.27038L 139.031 7.432L 138.869 7.88425L 138.967 8.33651L 138.967 9.20898L 138.934 9.6289L 138.999 10.0491L 138.999 10.566L 139.031 11.0186L 138.999 12.7958L 139.031 13.1834L 138.999 13.7318L 139.031 15.0565L 138.999 15.5411L 138.999 16.0257L 139.031 16.8981L 138.999 17.3827L 139.031 17.7703L 138.999 18.4812L 139.031 18.9334L 139.031 20.0013L 139 20.4544L 139 21.4876L 139.032 21.9078L 139.227 22.3924L 139.712 22.5217L 140.163 22.5217L 140.617 22.5878ZM 163.511 22.619L 164.353 22.5543L 164.74 22.2946L 164.838 21.939L 164.805 21.0342L 164.773 20.5831L 164.805 20.0985L 164.773 19.6783L 164.805 18.7412L 164.773 18.3533L 164.805 17.6101L 164.773 16.9639L 164.805 16.4794L 164.773 16.1252L 164.773 15.1223L 164.805 14.7347L 164.773 14.2493L 164.773 9.92011L 164.74 9.53251L 164.74 9.04735L 164.773 8.5951L 164.773 8.0782L 164.547 7.432L 164.158 7.20573L 162.412 7.23806L 161.959 7.46433L 161.699 7.91658L 161.732 8.40115L 161.764 8.82137L 161.764 9.79081L 161.732 10.2107L 161.764 11.6648L 161.733 12.0847L 161.765 12.5049L 161.505 12.9895L 160.826 13.2158L 159.726 13.2804L 159.306 13.2481L 158.853 13.2804L 158.4 13.2481L 157.98 13.2481L 157.495 12.9883L 157.333 12.6004L 157.268 12.1159L 157.3 10.7594L 157.268 8.75615L 157.205 8.27186L 157.205 7.85193L 156.882 7.39968L 156.202 7.17341L 155.556 7.23806L 154.682 7.17341L 154.327 7.36735L 154.133 7.81961L 154.165 8.30418L 154.23 8.78876L 154.23 9.20898L 154.262 9.69355L 154.23 10.1461L 154.295 10.5017L 154.262 12.7635L 154.295 13.5067L 154.262 14.1529L 154.262 14.6051L 154.295 15.219L 154.23 16.7053L 154.295 17.3515L 154.262 19.1288L 154.295 19.549L 154.295 20.3245L 154.23 21.3909L 154.262 21.9393L 154.488 22.3595L 154.941 22.5534L 155.556 22.5858L 156.462 22.5534L 157.044 22.3595L 157.27 21.8749L 157.335 21.4227L 157.335 20.9707L 157.302 20.5831L 157.302 18.7412L 157.335 18.2566L 157.302 17.5458L 157.335 17.1582L 157.335 16.5117L 157.497 16.0271L 157.949 15.8655L 158.823 15.7685L 159.276 15.8332L 159.955 15.8008L 160.407 15.8655L 160.859 15.8008L 161.539 15.9948L 161.765 16.4794L 161.733 16.9639L 161.7 17.6425L 161.765 18.7735L 161.733 19.3219L 161.765 19.7418L 161.733 20.2264L 161.765 20.711L 161.765 21.0986L 161.797 21.5831L 161.862 22.0031L 162.153 22.3592L 162.638 22.5532L 163.511 22.619Z" transform="translate(25.752 0)" fill="#484848"/>
</g>
<g id="&#208;&#164;&#208;&#184;&#208;&#179;&#209;&#131;&#209;&#128;&#208;&#176; 1">
<path d="M 23.4941 94.8241L 9.91671e-08 94.8241L 9.91671e-08 -2.64231e-08L 12.2181 -2.64231e-08" stroke-width="3" stroke-linejoin="round" transform="translate(2 14.176)" stroke="#C0B6DB"/>
</g>
<g id="&#208;&#164;&#208;&#184;&#208;&#179;&#209;&#131;&#209;&#128;&#208;&#176; 1_2">
<path d="M 352.409 1.55015e-06L 352.409 18.7761L 1.69245e-06 18.7761" stroke-width="3" stroke-linejoin="round" transform="translate(39.5906 90.2239)" stroke="#F3E866"/>
</g>
<g id="&#208;&#164;&#208;&#184;&#208;&#179;&#209;&#131;&#209;&#128;&#208;&#176; 1_3">
<path d="M -8.03914e-06 -2.64231e-08L 190.771 -2.64231e-08L 190.771 61.9646" stroke-width="3" stroke-linejoin="round" transform="translate(201.229 14.176)" stroke="#58BD72"/>
</g>
</g>
</g>
</svg>

